<svg width="77" height="78" viewBox="0 0 77 78" fill="none" xmlns="http://www.w3.org/2000/svg">
<path d="M76.3836 38.9241C76.3836 33.6107 76.4314 28.3455 76.1352 23.0417C75.839 16.8812 74.444 11.4138 69.9724 6.90899C65.4912 2.39452 60.0736 0.998795 53.9586 0.700397C48.6844 0.402 43.4579 0.450129 38.1932 0.450129C32.919 0.450129 27.6926 0.402 22.4279 0.700397C16.3128 0.998795 10.8857 2.40415 6.41409 6.90899C1.9329 11.4234 0.547463 16.8812 0.251266 23.0417C-0.044932 28.3551 0.00284201 33.6204 0.00284201 38.9241C0.00284201 44.2279 -0.044932 49.5028 0.251266 54.8066C0.547463 60.967 1.94246 66.4344 6.41409 70.9393C10.8953 75.4537 16.3128 76.8495 22.4279 77.1479C27.7021 77.4463 32.9286 77.3981 38.1932 77.3981C43.4675 77.3981 48.6939 77.4463 53.9586 77.1479C60.0736 76.8495 65.5008 75.4441 69.9724 70.9393C74.4536 66.4248 75.839 60.967 76.1352 54.8066C76.441 49.5028 76.3836 44.2375 76.3836 38.9241Z" fill="#BBA26E"/>
<path d="M38.061 58.9039C27.16 58.9039 18.3624 50.0411 18.3624 39.0594C18.3624 28.0777 27.16 19.2149 38.061 19.2149C48.962 19.2149 57.7596 28.0777 57.7596 39.0594C57.7596 50.0411 48.962 58.9039 38.061 58.9039ZM58.5664 23.0367C56.0212 23.0367 53.9659 20.9662 53.9659 18.4022C53.9659 15.8381 56.0212 13.7676 58.5664 13.7676C61.1115 13.7676 63.1669 15.8381 63.1669 18.4022C63.1676 19.011 63.0491 19.614 62.8182 20.1766C62.5873 20.7393 62.2484 21.2505 61.8211 21.681C61.3937 22.1115 60.8863 22.4529 60.3278 22.6855C59.7693 22.9181 59.1707 23.0375 58.5664 23.0367Z" fill="#FEF8F9"/>
<path d="M38.1939 26.3438C31.3184 26.3438 25.7074 31.9963 25.7074 38.9227C25.7074 45.8492 31.3184 51.5017 38.1939 51.5017C45.0694 51.5017 50.6804 45.8492 50.6804 38.9227C50.6804 31.9963 45.0694 26.3438 38.1939 26.3438Z" fill="#BBA26E"/>
</svg>
