<svg width="75" height="75" viewBox="0 0 75 75" fill="none" xmlns="http://www.w3.org/2000/svg">
<path fill-rule="evenodd" clip-rule="evenodd" d="M0.565309 6.85016C0.565309 5.20899 1.21726 3.63504 2.37774 2.47455C3.53823 1.31407 5.11218 0.662118 6.75335 0.662118H68.4385C69.2518 0.660789 70.0574 0.819892 70.8092 1.13032C71.5609 1.44074 72.244 1.89639 72.8194 2.47118C73.3949 3.04597 73.8513 3.72861 74.1625 4.48002C74.4737 5.23143 74.6337 6.03684 74.6333 6.85016V68.5353C74.6342 69.3488 74.4746 70.1544 74.1638 70.9062C73.8531 71.658 73.3971 72.3411 72.822 72.9165C72.247 73.4918 71.5641 73.9482 70.8125 74.2594C70.0609 74.5706 69.2553 74.7305 68.4419 74.7301H6.75335C5.94044 74.7301 5.1355 74.5699 4.38451 74.2587C3.63352 73.9475 2.95121 73.4914 2.37655 72.9165C1.8019 72.3415 1.34616 71.6589 1.03538 70.9078C0.724598 70.1566 0.564866 69.3516 0.565309 68.5387V6.85016ZM29.8828 28.9022H39.9122V33.9388C41.3599 31.0435 45.0633 28.4376 50.6285 28.4376C61.2977 28.4376 63.8261 34.2048 63.8261 44.7864V64.3875H53.029V47.197C53.029 41.1706 51.5813 37.7702 47.9048 37.7702C42.8042 37.7702 40.6832 41.4365 40.6832 47.197V64.3875H29.8828V28.9022ZM11.3658 63.9263H22.1662V28.4376H11.3658V63.9229V63.9263Z" fill="#BBA26E"/>
</svg>
