<svg width="248" height="71" viewBox="0 0 248 71" fill="none" xmlns="http://www.w3.org/2000/svg">
<path d="M48.3768 70.2698L48.3041 70.0289C48.1168 69.4083 47.932 68.7873 47.7472 68.1665C47.35 66.8319 46.953 65.498 46.5321 64.1708C45.9234 62.2582 45.2753 60.3571 44.6268 58.455L44.6268 58.4549C43.2752 54.4861 40.7301 51.4886 37.0281 49.5751C34.246 48.1369 31.422 46.7329 28.4818 45.7019C23.9255 44.1056 19.9433 41.6037 16.0814 38.8272C15.4123 38.3463 14.6989 37.9318 13.9231 37.4811C13.7267 37.3669 13.5262 37.2504 13.3215 37.13C15.7811 39.7685 18.085 42.2382 20.3886 44.7077L20.3982 44.718L20.4566 44.7806L20.4037 44.848L20.2308 45.068L20.1688 45.1469L20.0901 45.0847C19.9291 44.9574 19.7643 44.8315 19.5987 44.7049C19.2488 44.4374 18.8951 44.1671 18.5653 43.8749C17.4756 42.918 16.3895 41.9572 15.3035 40.9966C13.0122 38.9698 10.7216 36.9436 8.39977 34.955L8.39965 34.9549C7.66919 34.3273 6.746 33.9154 5.77282 33.5757C8.56034 38.2416 12.4084 41.9283 16.2756 45.6137L16.3467 45.6815L16.2802 45.7538L15.9658 46.0957L15.9019 46.1652L15.8289 46.1054C15.507 45.8421 15.1847 45.5791 14.8623 45.316C14.0398 44.6447 13.2167 43.973 12.3977 43.2952C11.647 42.6768 10.8992 42.0557 10.1517 41.4348C8.29935 39.8963 6.44862 38.3592 4.55952 36.8675L48.3768 70.2698ZM48.3768 70.2698L48.4749 70.0735M48.3768 70.2698L48.4749 70.0735M44.7215 58.4227C45.3699 60.3247 46.0183 62.2268 46.6274 64.1406C47.0486 65.4686 47.446 66.804 47.8434 68.1391C48.018 68.7258 48.1925 69.3124 48.3691 69.8983L44.7215 58.4227ZM44.7215 58.4227C43.3617 54.43 40.7995 51.4119 37.074 49.4863C34.2917 48.0479 31.4622 46.6411 28.5148 45.6075L44.7215 58.4227ZM48.4749 70.0735L48.723 69.9885L48.7951 69.9638L48.7904 69.8877C48.7832 69.7714 48.7828 69.6564 48.7823 69.5379C48.782 69.4633 48.7817 69.3873 48.7798 69.3088C48.7748 69.1117 48.7588 68.9093 48.6998 68.7173C48.3951 67.7039 48.0948 66.6889 47.7944 65.6736C46.8593 62.5136 45.9237 59.3515 44.8554 56.2328C44.0408 53.8488 42.3261 52.0066 40.3419 50.4721L40.3418 50.4721C36.7003 47.663 32.4774 46.0632 28.1973 44.6051L28.1971 44.605C27.277 44.2944 26.3478 43.9634 25.5372 43.467C24.1151 42.5949 22.7079 41.6986 21.2999 40.8018C21.1797 40.7252 21.0595 40.6486 20.9393 40.5721C19.4111 39.599 17.8806 38.6278 16.3292 37.6899M48.4749 70.0735L21.9363 57.1966L21.9928 57.1141C22.5414 57.4903 23.0789 57.8863 23.6143 58.2807C23.8855 58.4805 24.1562 58.68 24.4275 58.8761L24.5053 58.9324L24.4522 59.0124L24.2125 59.374L24.1588 59.455L24.0763 59.4036L24.0743 59.4024C20.887 57.4175 17.6997 55.4325 14.1989 53.2495M16.3292 37.6899C16.3292 37.6899 16.3293 37.6899 16.3293 37.69L16.2773 37.7754L16.3291 37.6898C16.3291 37.6898 16.3292 37.6898 16.3292 37.6899ZM16.3292 37.6899C15.2636 37.0411 14.062 36.3948 12.8422 36.2068L12.8269 36.3056L12.8424 36.2068C11.8303 36.0484 11.0869 35.7097 10.2972 35.1174L10.2971 35.1174C9.05972 34.1903 7.7664 33.2523 6.3518 32.6263C5.19268 32.1124 3.84199 31.9698 2.5813 31.8367L2.57664 31.8362L2.57628 31.8362C2.25738 31.8037 1.86838 31.8219 1.51531 31.9004C1.16639 31.978 0.832306 32.1189 0.645554 32.3479L0.645512 32.348C0.552611 32.4621 0.503864 32.6064 0.480831 32.7606C0.457765 32.915 0.459493 33.0861 0.473034 33.2604C0.486602 33.435 0.512391 33.6168 0.539074 33.7928C0.544457 33.8283 0.549867 33.8635 0.555226 33.8984C0.576632 34.0378 0.597219 34.1718 0.611938 34.2973L0.612033 34.2981C0.626483 34.4137 0.667649 34.5333 0.715066 34.647C0.749221 34.7288 0.788715 34.8123 0.826077 34.8913C0.840386 34.9215 0.854382 34.9511 0.867645 34.9796C0.917062 35.0861 0.956606 35.1792 0.976217 35.2577C0.996426 35.3386 0.989674 35.3817 0.975652 35.4047L0.97565 35.4047L0.975288 35.4053C0.760725 35.7625 0.655054 36.0859 0.634339 36.3864C0.613588 36.6874 0.678558 36.9589 0.795397 37.2112C0.911665 37.4623 1.07946 37.6947 1.26465 37.9189C1.37691 38.0548 1.49909 38.1917 1.62112 38.3285C1.69832 38.415 1.77546 38.5014 1.84998 38.5875C3.96351 41.031 6.04173 43.506 8.08858 46.0047C8.20363 46.1467 8.30915 46.365 8.36872 46.5874C8.42933 46.8136 8.43603 47.02 8.38088 47.1476L8.38078 47.1479C8.15402 47.6763 8.11629 48.134 8.25433 48.5353C8.39184 48.9352 8.69808 49.2623 9.12522 49.5424C11.1917 50.9018 12.8461 52.6153 14.048 54.7966L14.0481 54.7967C14.4435 55.5116 15.064 56.2303 15.7711 56.6424L15.7711 56.6424C16.1014 56.8348 16.4316 57.0283 16.7621 57.2221C20.3639 59.3334 24.0077 61.4694 28.1691 62.2974L28.1692 62.2974C31.3095 62.9207 33.4967 64.455 34.8137 67.3142C34.9356 67.5814 35.0638 67.8543 35.2251 68.1083L35.2257 68.1092C35.3403 68.2857 35.478 68.4513 35.6109 68.6111C35.6598 68.6699 35.708 68.7279 35.7542 68.7854L35.9296 68.7001C35.1367 65.304 33.5645 62.3957 29.9055 61.6806L29.9054 61.6806C26.333 60.9851 23.1833 59.3894 20.0146 57.7839C19.1337 57.3376 18.2514 56.8906 17.3581 56.4619M17.3581 56.4619C17.3581 56.462 17.3581 56.462 17.3581 56.462L17.3148 56.5521L17.3581 56.4619ZM17.3581 56.4619C16.0462 55.8313 15.0506 54.8402 14.1989 53.2495M14.1989 53.2495C14.1429 53.2145 14.0868 53.1796 14.0307 53.1446L24.1291 59.3187C20.8973 57.3061 17.6654 55.2934 14.1069 53.0742C14.1374 53.1334 14.1681 53.1919 14.1989 53.2495ZM40.2807 50.5513C36.6535 47.7532 32.4447 46.1577 28.1651 44.6997C27.2455 44.3893 26.3063 44.0552 25.4849 43.5522L40.2807 50.5513ZM40.2807 50.5513C42.2575 52.08 43.9551 53.9073 44.7608 56.2652L40.2807 50.5513ZM35.8322 68.7228L35.7348 68.7455C35.7193 68.679 35.7034 68.6126 35.6873 68.5465C35.736 68.6051 35.7847 68.6637 35.8322 68.7228ZM35.8322 68.7228L35.9101 68.6602C35.8664 68.6057 35.8225 68.5526 35.7789 68.5002C35.797 68.5741 35.8148 68.6483 35.8322 68.7228ZM6.31127 32.7177C7.71422 33.3386 8.99928 34.27 10.2372 35.1974L2.56614 31.9356C3.83155 32.0692 5.16769 32.2107 6.31127 32.7177ZM0.91546 34.8463C0.826894 34.6592 0.7332 34.4612 0.711261 34.2857L8.16615 45.9416C6.11871 43.4422 4.03983 40.9664 1.92558 38.522C1.8488 38.4334 1.77082 38.346 1.69339 38.2592C0.978138 37.4579 0.309276 36.7085 1.06102 35.4568C1.14173 35.3245 1.03312 35.095 0.91546 34.8463ZM24.4239 49.447L24.4086 49.3481C24.4086 49.3481 24.4085 49.3482 24.4085 49.3482L24.4239 49.447ZM31.9152 50.0181C31.9436 49.9946 31.9723 49.9709 32.0018 49.9465C31.9674 49.9317 31.933 49.9169 31.8986 49.902C31.8693 49.9263 31.8406 49.95 31.812 49.9736C31.8464 49.9884 31.8808 50.0032 31.9152 50.0181ZM29.4528 50.4893C29.4529 50.4893 29.4529 50.4893 29.4529 50.4893L29.4658 50.3901L29.4528 50.4893ZM10.6153 47.113C10.6153 47.113 10.6154 47.113 10.6155 47.113C10.6156 47.113 10.6157 47.1129 10.6158 47.1129L10.5987 47.0144L10.6153 47.113ZM9.39523 47.8167C9.37817 47.7876 9.36083 47.759 9.34318 47.7312C9.31508 47.7495 9.28691 47.7674 9.25865 47.7847C9.27529 47.8108 9.29155 47.8375 9.30751 47.8647L9.31076 47.87C9.33906 47.8527 9.36722 47.8349 9.39523 47.8167ZM1.44574 33.7888C1.33644 33.6246 1.22388 33.4556 1.10469 33.2983C1.51068 33.1025 1.90571 33.0156 2.29363 33.0318C2.71567 33.0495 3.13575 33.1895 3.55838 33.4543C4.36049 33.9568 5.16543 34.9049 5.99431 36.295C5.69702 36.1782 5.39721 36.0648 5.09688 35.9512C4.16074 35.5972 3.21955 35.2412 2.33371 34.7749C2.07677 34.6391 1.86805 34.3976 1.6623 34.1075C1.5909 34.0068 1.51905 33.8989 1.44574 33.7888Z" fill="#68754A" stroke="#68754A" stroke-width="0.2"/>
<path d="M84.2538 45.6528V45.4111V45.3993V45.0872L84.3714 45.2519C84.914 44.7095 85.4621 44.1732 86.0098 43.6372C87.3187 42.3564 88.6253 41.0779 89.8482 39.7244L89.8482 39.7243C91.077 38.3669 92.2206 36.9365 93.3663 35.5034C93.8482 34.9007 94.3304 34.2976 94.8195 33.6992L94.5911 33.3704C94.3342 33.5059 94.0665 33.6325 93.801 33.7581C93.6294 33.8393 93.4587 33.92 93.2924 34.0024C92.8378 34.2278 92.4063 34.4701 92.0385 34.7824L92.0384 34.7825C89.8025 36.6755 87.6042 38.6125 85.4051 40.5503C84.4047 41.4319 83.4041 42.3136 82.3997 43.1913C81.6437 43.8528 80.8617 44.4928 80.0153 45.0505L79.8859 44.9001C82.1943 42.3336 84.5027 39.767 86.7365 37.2886C86.7067 37.3025 86.6766 37.3165 86.6462 37.3306C86.1642 37.5543 85.6089 37.8121 85.091 38.139L85.0909 38.139C83.4171 39.194 81.7502 40.2598 80.0829 41.3258C78.4157 42.3917 76.7482 43.4578 75.0738 44.5132C74.879 44.636 74.6555 44.703 74.4401 44.7605C74.4061 44.7696 74.3724 44.7784 74.339 44.7872C74.1558 44.8351 73.9809 44.8809 73.8192 44.9523C72.6831 45.4594 71.5406 45.9519 70.3989 46.4442C67.6333 47.6365 64.8716 48.8272 62.2124 50.2194L62.2123 50.2194C58.8605 51.9732 56.7099 54.9361 55.5372 58.5713L55.5372 58.5713C54.7173 61.1107 53.9069 63.6547 53.0967 66.1982C52.8662 66.9216 52.6358 67.6449 52.4052 68.3681L52.3099 68.3377L52.4052 68.3681L52.3984 68.3896C52.2553 68.8383 52.1051 69.3096 51.6435 69.7428L51.4497 69.9247L51.4755 69.6602C51.4905 69.5067 51.4973 69.3539 51.5042 69.1984C51.5081 69.1108 51.5121 69.0224 51.5175 68.9324C51.5324 68.6871 51.5584 68.4385 51.6284 68.1997C51.885 67.3161 52.1377 66.4307 52.3904 65.545C53.1587 62.8522 53.9279 60.1564 54.8127 57.4991L54.8127 57.499C56.1937 53.356 59.075 50.3695 62.9238 48.4925L62.9239 48.4925C64.5053 47.7222 66.1529 47.0888 67.7955 46.4573L67.8721 46.4279C69.5414 45.7861 71.2044 45.1442 72.7951 44.3586C75.6491 42.9492 78.3709 41.2532 81.0868 39.5609C81.4024 39.3643 81.7179 39.1677 82.0335 38.9716L82.0336 38.9715C82.4833 38.6924 82.9181 38.3852 83.3549 38.0765C83.4054 38.0408 83.456 38.005 83.5067 37.9693C83.9936 37.6258 84.4849 37.2848 84.9979 36.9888C86.0257 36.3958 87.1461 35.98 88.5146 36.0762L88.5149 36.0762C88.5845 36.0813 88.6628 36.061 88.7524 36.0156C88.8418 35.9701 88.9358 35.903 89.0348 35.8231C89.108 35.7639 89.1811 35.7001 89.2558 35.635C89.2823 35.6119 89.3089 35.5886 89.3358 35.5654C89.4372 35.4777 89.5416 35.3905 89.6458 35.3193C90.04 35.0492 90.4227 34.7615 90.8073 34.4723C91.0491 34.2905 91.2916 34.1081 91.5383 33.9292C92.1733 33.4685 92.8275 33.0372 93.5368 32.7244L93.5369 32.7244C94.7869 32.1754 96.2182 32.0007 97.5866 31.8336C97.686 31.8214 97.7851 31.8093 97.8837 31.7971L97.884 31.7971C98.1779 31.7616 98.5381 31.8045 98.8627 31.906C99.1846 32.0068 99.4901 32.1713 99.6579 32.3943L99.6584 32.3949C99.8227 32.6172 99.8278 32.9412 99.7984 33.2556C99.7844 33.4051 99.7616 33.5604 99.7394 33.7113L99.7344 33.7455C99.7105 33.9083 99.6882 34.0651 99.6777 34.2101C99.6707 34.3211 99.6646 34.4334 99.6585 34.5464C99.6311 35.0537 99.6029 35.5767 99.4785 36.0744L99.4785 36.0746C99.4595 36.1499 99.4407 36.2268 99.4216 36.3046C99.3527 36.5863 99.2806 36.8805 99.1887 37.1611C99.071 37.52 98.918 37.8661 98.6889 38.1488L98.6889 38.1489C97.3002 39.8596 95.8684 41.5374 94.4379 43.2137C93.7382 44.0336 93.0388 44.8531 92.3449 45.6759L92.3449 45.676C92.1097 45.9547 91.9081 46.2066 91.8089 46.4939C91.7121 46.7745 91.7105 47.098 91.9001 47.5239L91.9001 47.5241C91.9565 47.6513 91.9657 47.8125 91.948 47.9779C91.93 48.1455 91.8833 48.3279 91.8174 48.5044C91.6874 48.8528 91.4738 49.2017 91.2328 49.3681L91.2326 49.3683C88.9794 50.9147 87.2789 52.9034 85.8658 55.2248C85.4159 55.9638 84.679 56.6445 83.9125 57.0418C83.1565 57.4346 82.4048 57.8407 81.6522 58.2473C78.2301 60.096 74.7899 61.9544 70.8401 62.6241C68.8833 62.9566 67.3898 64.0653 66.3419 65.7574L66.3419 65.7574C65.9266 66.4272 65.5281 67.1074 65.0955 67.8461C64.8943 68.1895 64.6857 68.5456 64.4645 68.9192L64.2787 68.8616C64.5055 65.4436 67.1848 62.2199 70.5694 61.594M84.2538 45.6528L70.5876 61.6923M84.2538 45.6528L84.346 45.5604M84.2538 45.6528L84.346 45.5604M70.5694 61.594L70.5876 61.6923M70.5694 61.594C70.5694 61.594 70.5694 61.594 70.5694 61.594L70.5876 61.6923M70.5694 61.594C74.3745 60.8897 77.6973 59.1225 81.0335 57.3482C81.7949 56.9433 82.5571 56.5379 83.3258 56.1448L83.3259 56.1447C83.876 55.8639 84.3508 55.4263 84.811 54.9372C84.9794 54.7583 85.147 54.571 85.3156 54.3827C85.5812 54.0859 85.8493 53.7864 86.1269 53.5122M70.5876 61.6923C74.4093 60.985 77.7487 59.2088 81.0857 57.4339C81.8458 57.0296 82.6058 56.6253 83.3713 56.2338C84.1481 55.8374 84.7711 55.1411 85.3943 54.4447C85.6792 54.1264 85.9641 53.808 86.2637 53.5183M86.1269 53.5122L86.1877 53.5833L86.2637 53.5183M86.1269 53.5122C86.1493 53.4901 86.1717 53.4682 86.1942 53.4464L86.2637 53.5183M86.1269 53.5122L85.941 53.295M86.2637 53.5183L85.9611 53.1646M64.3785 68.8682L64.2924 68.8173C64.3277 68.7577 64.3627 68.6985 64.3973 68.6398C64.3898 68.7158 64.3835 68.792 64.3785 68.8682ZM64.3785 68.8682L64.4782 68.8748C64.4828 68.807 64.4882 68.7392 64.4947 68.6715C64.4563 68.7366 64.4176 68.8021 64.3785 68.8682ZM85.9611 53.1646L86.014 53.2495C85.9897 53.2646 85.9654 53.2798 85.941 53.295M85.9611 53.1646L85.8851 53.2296L85.941 53.295M85.9611 53.1646L89.9809 47.2215M85.941 53.295C84.3282 54.3006 82.7154 55.3072 81.1025 56.3138L81.0978 56.3167C79.4591 57.3394 77.8203 58.3622 76.1816 59.3839L76.1011 59.4341L76.0467 59.3564L75.7913 58.9909L75.7357 58.9114L75.8134 58.8534C75.9657 58.7398 76.1178 58.6235 76.2706 58.5066C76.5944 58.2588 76.9212 58.0088 77.2591 57.7782C79.283 56.3968 81.3079 55.0164 83.3327 53.6361L83.3454 53.6274C85.366 52.25 87.3866 50.8725 89.4062 49.4941C89.7256 49.276 90.0362 49.039 90.3229 48.7795L90.323 48.7794C90.5414 48.5822 90.6939 48.4003 90.7845 48.2366C90.8749 48.0732 90.9001 47.9344 90.8761 47.8175C90.8524 47.7016 90.7767 47.5902 90.6305 47.4876C90.4832 47.3842 90.2689 47.2936 89.9809 47.2215M89.9809 47.2215L90.0049 47.1245M89.9809 47.2215L75.8732 58.9336C76.0276 58.8184 76.1808 58.7012 76.3341 58.5839C76.6568 58.3371 76.9798 58.0899 77.3155 57.8608C79.3391 56.4796 81.3638 55.0993 83.3884 53.7191C85.4135 52.3386 87.4385 50.9581 89.4626 49.5767C89.7848 49.3566 90.0992 49.1169 90.39 48.8536C91.2821 48.048 91.1839 47.4192 90.0049 47.1245M89.9809 47.2215C89.257 47.0425 88.4034 46.969 87.7428 47.1992C86.3731 47.6767 85.024 48.2907 83.7932 49.0488L83.7931 49.0488C81.6732 50.3525 79.4289 50.9058 76.9813 50.5125M89.9809 47.2215C89.9808 47.2215 89.9807 47.2215 89.9806 47.2215L90.0049 47.1245M90.0049 47.1245C89.274 46.9437 88.3976 46.8651 87.7099 47.1048C86.3344 47.5842 84.9786 48.2012 83.7407 48.9636C81.6383 50.2565 79.4179 50.8028 76.9972 50.4137M84.346 45.5604L84.5082 45.7875L84.5673 45.8703L84.6491 45.8097C84.8293 45.6764 85.0131 45.5446 85.1978 45.4122C85.6278 45.1041 86.0624 44.7926 86.466 44.4498M84.346 45.5604L76.9972 50.4137M86.466 44.4498C86.4659 44.4499 86.4658 44.4499 86.4658 44.45L86.4012 44.3736L86.466 44.4498ZM86.466 44.4498C87.4001 43.6612 88.3284 42.8669 89.2562 42.0729C90.8597 40.7006 92.4622 39.3293 94.0924 37.9903M94.0924 37.9903C94.9852 37.2613 96.0001 36.6443 97.0403 36.132L97.0404 36.132C97.1878 36.0591 97.3965 36.0775 97.6549 36.1387C97.7498 36.1611 97.8464 36.188 97.9451 36.2154C97.9778 36.2245 98.0108 36.2336 98.044 36.2427C98.1361 36.2679 98.2294 36.2923 98.3212 36.3117M94.0924 37.9903C94.0924 37.9903 94.0923 37.9904 94.0923 37.9904L94.0291 37.9129M94.0924 37.9903C94.0925 37.9903 94.0925 37.9902 94.0925 37.9902L94.0291 37.9129M98.3212 36.3117C98.288 36.4123 98.2581 36.5174 98.229 36.6199C98.2067 36.6984 98.1848 36.7755 98.1621 36.8481C98.0962 37.059 98.0202 37.2458 97.9015 37.3894M98.3212 36.3117C98.3544 36.3187 98.3875 36.3251 98.4202 36.3307C98.3864 36.4315 98.3568 36.536 98.3271 36.6406C98.2428 36.9378 98.1583 37.2358 97.9785 37.4531M98.3212 36.3117C98.3318 36.2794 98.3428 36.2476 98.3542 36.2165C98.2308 36.1909 98.1021 36.1552 97.9733 36.1194C97.611 36.0188 97.2477 35.9179 96.9961 36.0423C95.9507 36.5571 94.929 37.1781 94.0291 37.9129M97.9015 37.3894C97.1827 38.2573 96.4454 39.1139 95.7076 39.9713C94.5262 41.3438 93.3434 42.7181 92.2328 44.1431L92.2328 44.1432C92.1781 44.2134 92.1243 44.2831 92.0712 44.3518C91.6501 44.8973 91.271 45.3882 90.8011 45.7108C90.2824 46.0669 89.6478 46.2194 88.7102 45.9707M97.9015 37.3894L97.9785 37.4531M97.9015 37.3894C97.9015 37.3894 97.9015 37.3894 97.9015 37.3894L97.9785 37.4531M88.7102 45.9707C88.2915 45.8592 87.8154 45.9377 87.3481 46.0808C86.9746 46.1951 86.5951 46.3545 86.2436 46.5023C86.1544 46.5397 86.067 46.5765 85.982 46.6115L85.9819 46.6115C84.9833 47.0237 84.0415 47.5937 83.123 48.1511L83.1229 48.1511C81.3657 49.2187 79.5451 49.7452 77.4538 49.4814C75.1356 49.1883 72.7964 49.0495 70.4635 48.9111C70.3522 48.9045 70.2411 48.8979 70.1299 48.8913M88.7102 45.9707C88.7102 45.9707 88.7102 45.9707 88.7101 45.9707L88.6845 46.0673M88.7102 45.9707L88.6845 46.0673M70.1299 48.8913C69.7285 48.8672 69.3261 48.8964 68.9273 48.9394C68.7752 48.9557 68.6248 48.974 68.4751 48.9921C68.2287 49.0219 67.9843 49.0515 67.7379 49.0723L67.671 49.0779L67.6509 49.142L67.5252 49.5428L67.4982 49.6289L67.581 49.6646C67.7662 49.7444 67.9516 49.8221 68.1528 49.9066C68.162 49.9105 68.1712 49.9143 68.1805 49.9182C67.8844 50.0527 67.5978 50.183 67.3173 50.3104C66.4199 50.7182 65.5848 51.0977 64.7026 51.4977L64.5571 51.5636L64.6801 51.6657C64.7597 51.7318 64.8146 51.7809 64.8552 51.8172C64.867 51.8277 64.8775 51.8371 64.8871 51.8455C64.907 51.863 64.9273 51.8805 64.9459 51.8926C64.9609 51.9023 65.0007 51.9264 65.0507 51.9138C65.2392 51.8706 65.4367 51.8223 65.6235 51.7533L65.6238 51.7532C69.3076 50.3791 73.0784 49.8868 76.9813 50.5125M70.1299 48.8913L70.1239 48.9911M70.1299 48.8913C70.1299 48.8913 70.1298 48.8913 70.1298 48.8913L70.1239 48.9911M76.9813 50.5125C76.9813 50.5125 76.9813 50.5125 76.9813 50.5125L76.9972 50.4137M76.9813 50.5125L76.9972 50.4137M88.6845 46.0673C90.5015 46.5494 91.2583 45.5688 92.1501 44.4134C92.2034 44.3443 92.2572 44.2746 92.3117 44.2046M88.6845 46.0673C87.9821 45.8803 87.0769 46.2606 86.2847 46.5935C86.1949 46.6312 86.1065 46.6683 86.0201 46.704C85.0297 47.1127 84.0944 47.6786 83.1749 48.2366C81.4025 49.3134 79.5594 49.8478 77.4412 49.5806C75.1265 49.288 72.7903 49.1494 70.4565 49.0109C70.3456 49.0043 70.2348 48.9977 70.1239 48.9911M92.3117 44.2046L67.7463 49.1719C67.9941 49.1511 68.2422 49.121 68.4902 49.091C69.0369 49.0248 69.5832 48.9587 70.1239 48.9911M92.3117 44.2046C93.4213 42.7808 94.6007 41.4105 95.7805 40.0399C96.5187 39.1822 97.2571 38.3244 97.9785 37.4531M92.3117 44.2046L94.0291 37.9129M85.0376 38.0544C85.5613 37.7239 86.1269 37.4613 86.6107 37.2367C86.7142 37.1887 86.814 37.1423 86.9088 37.0974L85.0376 38.0544ZM85.0376 38.0544C83.3635 39.1096 81.6963 40.1755 80.029 41.2415C78.3618 42.3075 76.6946 43.3734 75.0205 44.4286L85.0376 38.0544ZM64.7439 51.5887L64.8078 51.5118C64.8208 51.5226 64.8332 51.533 64.845 51.5429C64.8114 51.5582 64.7777 51.5734 64.7439 51.5887ZM64.7439 51.5887L64.7852 51.6798C64.7996 51.6733 64.814 51.6668 64.8284 51.6602C64.8037 51.6389 64.7757 51.6151 64.7439 51.5887ZM91.8087 47.5646C91.4118 46.6725 91.8008 46.1656 92.2685 45.6115C92.9632 44.7876 93.663 43.9676 94.3629 43.1475C95.793 41.4717 97.2234 39.7956 98.6112 38.0858C98.9999 37.6061 99.1671 36.9237 99.324 36.283C99.3432 36.2046 99.3622 36.1269 99.3815 36.0502C99.5034 35.5627 99.531 35.0515 99.5584 34.5447C99.5646 34.4305 99.5708 34.3166 99.578 34.2032L91.8087 47.5646ZM91.8087 47.5646C91.9934 47.9812 91.6083 48.9872 91.176 49.2859L91.8087 47.5646ZM80.2389 44.6571C80.1287 44.734 80.0175 44.8095 79.9052 44.8835L79.9603 44.967L80.0346 45.0339C80.1249 44.9334 80.2153 44.833 80.3056 44.7326C81.016 44.2364 81.6837 43.685 82.3339 43.116C83.3376 42.2388 84.3379 41.3574 85.3382 40.476C87.5376 38.5379 89.7371 36.5998 91.9738 34.7062L80.2389 44.6571ZM93.9977 36.3982L93.889 36.3334C94.1685 36.0579 94.4436 35.7789 94.7182 35.5005C95.522 34.6857 96.3207 33.876 97.2075 33.1733C97.2818 33.1145 97.3841 33.0797 97.5147 33.0649C97.6451 33.0501 97.7957 33.0562 97.9597 33.0726C98.0838 33.0851 98.2116 33.103 98.3416 33.1212C98.3836 33.1271 98.4258 33.133 98.4682 33.1388C98.5811 33.1542 98.6947 33.1684 98.8051 33.1776C98.7406 33.2895 98.6798 33.4062 98.6206 33.5229C98.5983 33.5668 98.5764 33.6105 98.5545 33.654C98.4919 33.7786 98.4301 33.9015 98.3653 34.0201C98.1895 34.342 98.0029 34.6091 97.7553 34.7534L97.7552 34.7535C96.91 35.2472 95.9904 35.6078 95.0631 35.9714C94.7078 36.1107 94.3514 36.2504 93.9977 36.3982Z" fill="#68754A" stroke="#68754A" stroke-width="0.2"/>
<path d="M50.378 14.5169L50.378 14.5169C41.0084 14.3667 33.2605 21.9687 33.2131 31.3653C33.1657 40.765 40.6451 48.4512 50.2047 48.3405C60.2571 48.2219 66.9261 40.2785 67.0328 31.6107C67.1475 22.3831 59.6089 14.6671 50.378 14.5169ZM49.9535 47.1502H49.952H49.9488C41.1224 47.017 34.2352 39.9687 34.3602 31.1904C34.4851 22.4677 41.6339 15.6177 50.4731 15.7583C59.0481 15.8949 66.0458 23.1081 65.8897 31.6351C65.7295 40.3324 58.5945 47.2791 49.9535 47.1502Z" fill="#68754A" stroke="#68754A" stroke-width="0.2"/>
<path d="M29.1493 31.3484V31.4484C29.1493 33.1882 27.6986 34.6537 25.9787 34.6293C25.9787 34.6293 25.9786 34.6293 25.9786 34.6293L25.9801 34.5293L29.1493 31.3484ZM29.1493 31.3484H29.1437H29.1493ZM27.9746 31.3366H27.9732L27.9747 31.438C27.9897 32.4984 27.1375 33.4262 26.1047 33.4784L26.1046 33.4785C25.0241 33.5343 24.0556 32.6072 24.0405 31.4904C24.0293 30.3772 24.9758 29.4198 26.0562 29.4459C27.0638 29.4712 27.9085 30.3098 27.9746 31.3366Z" fill="#68754A" stroke="#68754A" stroke-width="0.2"/>
<path d="M76.4963 31.4487C76.5001 32.5574 75.5309 33.5198 74.4459 33.4862L76.4963 31.4487ZM76.4963 31.4487L76.5963 31.4484L76.4963 31.4487V31.4487ZM74.4374 28.2792L74.4374 28.2792C72.7357 28.3059 71.2876 29.8417 71.3444 31.5538L71.3444 31.5539C71.4012 33.2215 72.8391 34.6334 74.4823 34.6293L74.4825 34.6293C76.2194 34.6212 77.6634 33.1697 77.6513 31.4359C77.6391 29.7065 76.1594 28.2548 74.4374 28.2792ZM74.5685 29.3538L74.566 29.4537C74.566 29.4537 74.566 29.4537 74.5661 29.4537L74.5685 29.3538ZM72.4228 31.3265L72.4228 31.3265L72.4228 31.3265Z" fill="#68754A" stroke="#68754A" stroke-width="0.2"/>
<path d="M50.4647 1V0.736663L50.2899 0.933623C50.137 1.10588 50.0162 1.41332 49.918 1.8004C49.8186 2.19227 49.7385 2.68231 49.6762 3.23477C49.5517 4.34006 49.4979 5.70433 49.5072 7.05214C49.5166 8.39996 49.5892 9.73438 49.7184 10.78C49.7829 11.3026 49.8619 11.7556 49.9551 12.1032C50.0017 12.2769 50.0524 12.4267 50.1079 12.5467C50.1624 12.6646 50.2257 12.7633 50.3023 12.8244L50.4647 12.9541V12.7463V1Z" fill="#68754A" stroke="#68754A" stroke-width="0.2"/>
<path d="M46.1405 3.69073L46.1075 3.49872L45.9707 3.63745C45.8117 3.79868 45.7083 4.06474 45.6427 4.38797C45.5765 4.71473 45.5461 5.11553 45.5449 5.56197C45.5426 6.45527 45.6576 7.54376 45.8477 8.61434C46.0377 9.68496 46.3036 10.7419 46.605 11.572C46.7556 11.9869 46.916 12.3479 47.0818 12.6265C47.2454 12.9012 47.4229 13.111 47.6141 13.202L47.7882 13.2849L47.7556 13.0948C47.3485 10.7202 46.9599 8.4591 46.5764 6.22773C46.4306 5.37929 46.2855 4.53515 46.1405 3.69073Z" fill="#68754A" stroke="#68754A" stroke-width="0.2"/>
<path d="M53.1662 13.0708L53.2336 13.1893L53.3264 13.0894C53.4603 12.9452 53.5894 12.7022 53.7127 12.398C53.8372 12.091 53.9598 11.7113 54.0768 11.2849C54.3108 10.4318 54.5243 9.38492 54.6866 8.34405C54.8489 7.30328 54.9603 6.26568 54.9894 5.43112C55.004 5.01408 54.998 4.64525 54.9669 4.351C54.9514 4.20388 54.9294 4.07336 54.8996 3.96375C54.8703 3.8554 54.8317 3.76094 54.7794 3.691L54.6961 3.57966L54.6171 3.69401C54.5086 3.85086 54.3996 4.10202 54.2924 4.41448C54.1844 4.72923 54.0755 5.11412 53.9695 5.54406C53.7574 6.40408 53.5555 7.4493 53.394 8.48418C53.2326 9.51897 53.1113 10.5456 53.061 11.3683C53.0358 11.7795 53.0282 12.1418 53.0426 12.4296C53.0498 12.5735 53.0625 12.7005 53.0819 12.8067C53.1009 12.9113 53.1275 13.0028 53.1662 13.0708Z" fill="#68754A" stroke="#68754A" stroke-width="0.2"/>
<path d="M56.2911 13.8783L56.3514 14.003L56.4508 13.9066C56.5922 13.7694 56.7422 13.5575 56.8952 13.2962C57.0489 13.0335 57.2088 12.7154 57.3687 12.3615C57.6885 11.6537 58.0105 10.7981 58.286 9.94657C58.5614 9.09519 58.7911 8.24542 58.9253 7.54932C58.9924 7.20146 59.0361 6.88971 59.0493 6.63418C59.0623 6.38367 59.0472 6.17043 58.9831 6.03149L58.9249 5.9053L58.8237 6.00062C58.5348 6.27293 58.206 6.84466 57.8841 7.54615C57.5598 8.25267 57.236 9.10602 56.961 9.95573C56.686 10.8053 56.459 11.6538 56.3293 12.3507C56.2644 12.6989 56.2235 13.0116 56.2134 13.2689C56.2036 13.5214 56.2226 13.7366 56.2911 13.8783Z" fill="#68754A" stroke="#68754A" stroke-width="0.2"/>
<path d="M43.6878 14.2922L43.7594 14.4972L43.8686 14.3096C43.9826 14.114 44.039 13.8436 44.0544 13.5297C44.0699 13.2137 44.0442 12.8437 43.9861 12.4415C43.8697 11.6368 43.6217 10.693 43.3009 9.77524C42.9801 8.85747 42.5851 7.96185 42.1732 7.25407C41.9672 6.90025 41.7558 6.59128 41.5459 6.34945C41.3373 6.10906 41.124 5.9279 40.9127 5.83967L40.7058 5.75329L40.7797 5.96493C41.7779 8.82191 42.6739 11.3881 43.6878 14.2922Z" fill="#68754A" stroke="#68754A" stroke-width="0.2"/>
<path d="M37.6723 8.22948L37.5123 8.10948V8.27087L37.1224 8.64614L37.0671 8.6994L37.1043 8.7666C37.3767 9.25884 37.6484 9.75165 37.9203 10.2446C38.7658 11.7777 39.612 13.3123 40.4806 14.8354L40.4806 14.8354L40.4813 14.8365C40.5542 14.9607 40.7001 15.0275 40.8281 15.0747C40.8794 15.0936 40.9336 15.1112 40.9856 15.1282C41.0013 15.1333 41.0168 15.1383 41.0319 15.1433C41.0988 15.1654 41.1604 15.1869 41.2142 15.2111L41.3434 15.2692L41.3549 15.128C41.3603 15.0612 41.3729 14.9889 41.3879 14.9116C41.3919 14.8913 41.3961 14.8704 41.4003 14.8494C41.4117 14.7921 41.4236 14.7327 41.433 14.6752C41.458 14.522 41.4726 14.3474 41.399 14.2054L41.3987 14.2047C40.447 12.3997 39.4561 10.6106 38.4377 8.84121L38.4376 8.84104C38.3529 8.69439 38.2146 8.5856 38.0771 8.4936C38.0237 8.4579 37.968 8.42318 37.914 8.38952C37.898 8.37954 37.8821 8.36965 37.8665 8.35986C37.7972 8.31635 37.7316 8.27399 37.6723 8.22948Z" fill="#68754A" stroke="#68754A" stroke-width="0.2"/>
<path d="M59.4962 15.333L59.5844 15.494L59.6719 15.3326C60.2731 14.2224 60.8744 13.1132 61.4756 12.004L61.4762 12.003C62.0773 10.8942 62.6783 9.78529 63.2794 8.67543L63.3875 8.47586L63.1673 8.53078C62.9509 8.58476 62.7233 8.71593 62.4942 8.89814C62.2642 9.08112 62.0274 9.31998 61.7923 9.5966C61.3222 10.1499 60.8537 10.8609 60.4568 11.5965C60.0599 12.3319 59.7324 13.0958 59.5463 13.7556C59.4532 14.0854 59.3947 14.3922 59.3815 14.658C59.3684 14.922 59.3994 15.1564 59.4962 15.333Z" fill="#68754A" stroke="#68754A" stroke-width="0.2"/>
<path d="M38.6595 16.9496L38.797 17.0053V16.8736L38.9854 16.4367L39.009 16.3818L38.9719 16.3349C38.6755 15.9616 38.3801 15.5873 38.0848 15.213C37.1749 14.06 36.2647 12.9067 35.3234 11.7784L35.3233 11.7781C35.2095 11.6426 35.0289 11.5754 34.8586 11.5276C34.7944 11.5095 34.7273 11.4931 34.6622 11.4773C34.6394 11.4717 34.6169 11.4662 34.5949 11.4608C34.5081 11.4392 34.4267 11.4174 34.3533 11.3908L34.1888 11.3312L34.2209 11.5032C34.2338 11.572 34.2418 11.6462 34.2491 11.7248C34.2507 11.7431 34.2524 11.7617 34.2541 11.7805C34.2595 11.841 34.265 11.9037 34.2725 11.9642C34.292 12.1211 34.3265 12.2889 34.4243 12.4177L34.4244 12.4179C35.4901 13.8139 36.5796 15.1906 37.7087 16.536L37.7088 16.5362C37.823 16.6718 37.9982 16.7434 38.1652 16.7965C38.2261 16.8158 38.2897 16.8337 38.3515 16.8511C38.3755 16.8579 38.3993 16.8646 38.4225 16.8713C38.5072 16.8956 38.587 16.9202 38.6595 16.9496Z" fill="#68754A" stroke="#68754A" stroke-width="0.2"/>
<path d="M61.5797 16.9658L61.587 16.8904C61.5933 16.8252 61.5941 16.7541 61.5936 16.6783C61.5935 16.6601 61.5933 16.6416 61.5931 16.6228C61.5925 16.5649 61.5919 16.5048 61.5934 16.447C61.5974 16.2974 61.6154 16.1306 61.7089 16.0067L61.7092 16.0063L61.7092 16.0063C62.834 14.5315 63.994 13.0765 65.1736 11.6453L61.5797 16.9658ZM61.5797 16.9658L61.6502 16.9933M61.5797 16.9658L61.6502 16.9933M61.6502 16.9933L62.1139 17.174L62.1824 17.2007L62.2283 17.1433C62.5194 16.7795 62.8113 16.4161 63.1031 16.0526C64.0871 14.8274 65.0713 13.6018 66.0297 12.3553L66.0304 12.3543C66.1257 12.2272 66.1277 12.048 66.1175 11.8938C66.1135 11.834 66.1071 11.7717 66.1009 11.7117C66.0987 11.6912 66.0966 11.6709 66.0947 11.6512C66.0868 11.5716 66.0809 11.4978 66.0818 11.4311L66.0838 11.2861M61.6502 16.9933L66.0838 11.2861M66.0838 11.2861L65.9475 11.3358M66.0838 11.2861L65.9475 11.3358M65.9475 11.3358C65.8913 11.3564 65.8283 11.373 65.7602 11.3894M65.9475 11.3358L65.7602 11.3894M65.7602 11.3894C65.7416 11.3939 65.7224 11.3984 65.7029 11.403M65.7602 11.3894L65.7029 11.403M65.7029 11.403C65.6531 11.4147 65.6012 11.4269 65.5518 11.4404M65.7029 11.403L65.5518 11.4404M65.5518 11.4404C65.4173 11.477 65.2682 11.5304 65.1737 11.6452L65.5518 11.4404Z" fill="#68754A" stroke="#68754A" stroke-width="0.2"/>
<path d="M63.6243 18.5938L63.55 18.6599L63.6157 18.7346L64.217 19.4184L64.284 19.4945L64.3592 19.4265C64.6181 19.1921 64.8772 18.9579 65.1364 18.7238C66.2453 17.7218 67.3541 16.7199 68.4473 15.7L68.4477 15.6995C68.4741 15.6746 68.4877 15.6437 68.4951 15.6185C68.5028 15.5925 68.5062 15.5649 68.5072 15.5385C68.5093 15.4857 68.5024 15.4261 68.4901 15.3687C68.4778 15.311 68.4592 15.2514 68.4355 15.1986C68.4127 15.1476 68.3813 15.0942 68.3394 15.0569L68.3394 15.0569L68.3381 15.0558C68.2609 14.9897 68.1334 14.9518 68.0236 14.9386C67.9662 14.9317 67.9067 14.9306 67.8525 14.9381C67.801 14.9453 67.7416 14.9619 67.6967 15.001C66.458 16.0724 65.2323 17.1631 64.0084 18.2521C63.8804 18.366 63.7523 18.4799 63.6243 18.5938Z" fill="#68754A" stroke="#68754A" stroke-width="0.2"/>
<path d="M36.8473 18.8842L37.04 18.8432L36.8931 18.7119C35.8021 17.7371 34.8089 16.8477 33.7974 15.9419C33.3042 15.5002 32.8066 15.0547 32.2913 14.5935L32.1459 14.4633L32.1252 14.6574C32.0812 15.0692 32.2707 15.5594 32.5814 16.0466C32.8945 16.5377 33.3413 17.042 33.8384 17.487C34.3356 17.932 34.8867 18.321 35.4106 18.5791C35.9305 18.8353 36.4403 18.971 36.8473 18.8842Z" fill="#68754A" stroke="#68754A" stroke-width="0.2"/>
<path d="M30.9042 19.6588L30.809 19.6895C30.8397 19.7849 30.9189 19.8819 31.0177 19.9748C31.1193 20.0703 31.2528 20.1717 31.4085 20.2745C31.72 20.4803 32.1282 20.6969 32.5659 20.8873C33.0038 21.0777 33.4743 21.2432 33.9109 21.3456C34.3448 21.4473 34.7563 21.4894 35.0709 21.4229L35.1502 21.4062V21.3251V21.3212V21.2661L35.1036 21.2366C34.7438 21.0094 34.4077 20.7957 34.0886 20.5929C33.1785 20.0145 32.4072 19.5243 31.6234 19.0581L31.6234 19.0581L31.6208 19.0566C31.5644 19.0253 31.5004 19.0166 31.4407 19.0178C31.3804 19.019 31.3171 19.0304 31.2562 19.0463C31.1346 19.078 31.0093 19.1311 30.9136 19.175L30.9136 19.175L30.9127 19.1754C30.8581 19.2011 30.8324 19.256 30.82 19.2886C30.8052 19.3278 30.7959 19.3735 30.7906 19.4183C30.7804 19.5056 30.7833 19.6123 30.8093 19.6905L30.9042 19.6588ZM30.9042 19.6588C30.8649 19.541 30.8885 19.2973 30.9553 19.2659C31.1439 19.1794 31.4308 19.0654 31.5723 19.144C32.3547 19.6094 33.1243 20.0985 34.0339 20.6766C34.3168 20.8564 34.6133 21.0449 34.928 21.2439C34.9633 21.2396 34.9971 21.2341 35.0295 21.2273L35.0492 21.3206C35.0495 21.3208 35.0499 21.321 35.0502 21.3212V21.3251C35.0492 21.3253 35.0483 21.3255 35.0473 21.3257L34.9968 21.4057C34.9657 21.3861 34.9348 21.3665 34.904 21.3471C33.6624 21.4671 31.0778 20.1986 30.9042 19.6588Z" fill="#68754A" stroke="#68754A" stroke-width="0.2"/>
<path d="M66.2809 21.9146L66.3394 21.9666L66.4039 21.9224C66.5951 21.7911 66.785 21.6611 66.9738 21.5319C67.8471 20.9341 68.6953 20.3535 69.53 19.7518L69.53 19.7518L69.5333 19.7493C69.5675 19.7224 69.5792 19.6844 69.584 19.6638C69.5896 19.6395 69.5913 19.6134 69.5912 19.5889C69.5909 19.5394 69.5829 19.4813 69.5701 19.4242C69.5571 19.3667 69.5383 19.3063 69.5142 19.2524C69.4911 19.2007 69.459 19.1453 69.4148 19.1074L69.4148 19.1074L69.4132 19.1061C69.3347 19.0416 69.2138 19.0115 69.1071 19.004C69.0001 18.9965 68.876 19.0096 68.7878 19.062L68.7874 19.0622C67.8354 19.6326 66.891 20.2268 65.9662 20.8446C65.9198 20.8748 65.8855 20.9205 65.8608 20.9654C65.8352 21.0119 65.8156 21.0651 65.8019 21.1186C65.7755 21.2222 65.7668 21.3455 65.7957 21.4404C65.8272 21.5459 65.9121 21.6227 65.9937 21.6877C66.0246 21.7124 66.0559 21.736 66.0879 21.7601C66.149 21.806 66.2125 21.8539 66.2809 21.9146Z" fill="#68754A" stroke="#68754A" stroke-width="0.2"/>
<path d="M116.896 45.96C116.896 46.392 116.928 46.704 116.992 46.896C117.072 47.088 117.216 47.216 117.424 47.28C117.632 47.344 117.968 47.376 118.432 47.376H119.872C121.008 47.376 121.968 47.064 122.752 46.44C123.536 45.8 124.056 44.944 124.312 43.872C124.328 43.824 124.376 43.808 124.456 43.824C124.536 43.824 124.576 43.848 124.576 43.896C124.432 45.4 124.36 46.648 124.36 47.64C124.36 47.768 124.336 47.864 124.288 47.928C124.24 47.976 124.144 48 124 48H112.768C112.736 48 112.72 47.952 112.72 47.856C112.72 47.76 112.736 47.712 112.768 47.712C113.312 47.712 113.704 47.672 113.944 47.592C114.2 47.512 114.368 47.36 114.448 47.136C114.544 46.896 114.592 46.536 114.592 46.056V34.944C114.592 34.464 114.544 34.112 114.448 33.888C114.368 33.664 114.2 33.512 113.944 33.432C113.688 33.336 113.296 33.288 112.768 33.288C112.736 33.288 112.72 33.24 112.72 33.144C112.72 33.048 112.736 33 112.768 33L113.992 33.024C114.696 33.056 115.272 33.072 115.72 33.072C116.2 33.072 116.792 33.056 117.496 33.024L118.696 33C118.744 33 118.768 33.048 118.768 33.144C118.768 33.24 118.744 33.288 118.696 33.288C118.168 33.288 117.776 33.336 117.52 33.432C117.28 33.512 117.112 33.672 117.016 33.912C116.936 34.136 116.896 34.488 116.896 34.968V45.96ZM130.216 46.056C130.216 46.552 130.256 46.912 130.336 47.136C130.416 47.36 130.576 47.512 130.816 47.592C131.072 47.672 131.472 47.712 132.016 47.712C132.064 47.712 132.088 47.76 132.088 47.856C132.088 47.952 132.064 48 132.016 48C131.504 48 131.096 47.992 130.792 47.976L129.016 47.952L127.288 47.976C126.984 47.992 126.568 48 126.04 48C125.992 48 125.968 47.952 125.968 47.856C125.968 47.76 125.992 47.712 126.04 47.712C126.584 47.712 126.976 47.672 127.216 47.592C127.472 47.512 127.648 47.36 127.744 47.136C127.84 46.896 127.888 46.536 127.888 46.056V34.944C127.888 34.464 127.84 34.112 127.744 33.888C127.648 33.664 127.472 33.512 127.216 33.432C126.976 33.336 126.584 33.288 126.04 33.288C125.992 33.288 125.968 33.24 125.968 33.144C125.968 33.048 125.992 33 126.04 33L127.288 33.024C127.992 33.056 128.568 33.072 129.016 33.072C129.512 33.072 130.112 33.056 130.816 33.024L132.016 33C132.064 33 132.088 33.048 132.088 33.144C132.088 33.24 132.064 33.288 132.016 33.288C131.488 33.288 131.096 33.336 130.84 33.432C130.6 33.528 130.432 33.696 130.336 33.936C130.256 34.16 130.216 34.512 130.216 34.992V46.056ZM138.013 45.96C138.013 46.392 138.045 46.704 138.109 46.896C138.189 47.088 138.333 47.216 138.541 47.28C138.749 47.344 139.085 47.376 139.549 47.376H140.989C142.125 47.376 143.085 47.064 143.869 46.44C144.653 45.8 145.173 44.944 145.429 43.872C145.445 43.824 145.493 43.808 145.573 43.824C145.653 43.824 145.693 43.848 145.693 43.896C145.549 45.4 145.477 46.648 145.477 47.64C145.477 47.768 145.453 47.864 145.405 47.928C145.357 47.976 145.261 48 145.117 48H133.885C133.853 48 133.837 47.952 133.837 47.856C133.837 47.76 133.853 47.712 133.885 47.712C134.429 47.712 134.821 47.672 135.061 47.592C135.317 47.512 135.485 47.36 135.565 47.136C135.661 46.896 135.709 46.536 135.709 46.056V34.944C135.709 34.464 135.661 34.112 135.565 33.888C135.485 33.664 135.317 33.512 135.061 33.432C134.805 33.336 134.413 33.288 133.885 33.288C133.853 33.288 133.837 33.24 133.837 33.144C133.837 33.048 133.853 33 133.885 33L135.109 33.024C135.813 33.056 136.389 33.072 136.837 33.072C137.317 33.072 137.909 33.056 138.613 33.024L139.813 33C139.861 33 139.885 33.048 139.885 33.144C139.885 33.24 139.861 33.288 139.813 33.288C139.285 33.288 138.893 33.336 138.637 33.432C138.397 33.512 138.229 33.672 138.133 33.912C138.053 34.136 138.013 34.488 138.013 34.968V45.96ZM151.334 46.056C151.334 46.552 151.374 46.912 151.454 47.136C151.534 47.36 151.694 47.512 151.934 47.592C152.19 47.672 152.59 47.712 153.134 47.712C153.182 47.712 153.206 47.76 153.206 47.856C153.206 47.952 153.182 48 153.134 48C152.622 48 152.214 47.992 151.91 47.976L150.134 47.952L148.406 47.976C148.102 47.992 147.686 48 147.158 48C147.11 48 147.086 47.952 147.086 47.856C147.086 47.76 147.11 47.712 147.158 47.712C147.702 47.712 148.094 47.672 148.334 47.592C148.59 47.512 148.766 47.36 148.862 47.136C148.958 46.896 149.006 46.536 149.006 46.056V34.944C149.006 34.464 148.958 34.112 148.862 33.888C148.766 33.664 148.59 33.512 148.334 33.432C148.094 33.336 147.702 33.288 147.158 33.288C147.11 33.288 147.086 33.24 147.086 33.144C147.086 33.048 147.11 33 147.158 33L148.406 33.024C149.11 33.056 149.686 33.072 150.134 33.072C150.63 33.072 151.23 33.056 151.934 33.024L153.134 33C153.182 33 153.206 33.048 153.206 33.144C153.206 33.24 153.182 33.288 153.134 33.288C152.606 33.288 152.214 33.336 151.958 33.432C151.718 33.528 151.55 33.696 151.454 33.936C151.374 34.16 151.334 34.512 151.334 34.992V46.056ZM171.298 47.712C171.378 47.712 171.418 47.76 171.418 47.856C171.418 47.952 171.378 48 171.298 48C170.994 48 170.506 47.984 169.834 47.952C169.162 47.92 168.674 47.904 168.37 47.904C167.97 47.904 167.498 47.92 166.954 47.952C166.41 47.984 165.986 48 165.682 48C165.618 48 165.586 47.952 165.586 47.856C165.586 47.76 165.618 47.712 165.682 47.712C166.146 47.712 166.482 47.664 166.69 47.568C166.914 47.456 167.026 47.28 167.026 47.04C167.026 46.8 166.89 46.392 166.618 45.816L164.794 42.12H158.986L157.834 44.712C157.626 45.192 157.522 45.624 157.522 46.008C157.522 46.568 157.722 46.992 158.122 47.28C158.522 47.568 159.082 47.712 159.802 47.712C159.882 47.712 159.922 47.76 159.922 47.856C159.922 47.952 159.882 48 159.802 48C159.514 48 159.098 47.984 158.554 47.952C157.946 47.92 157.418 47.904 156.97 47.904C156.538 47.904 156.034 47.92 155.458 47.952C154.946 47.984 154.522 48 154.186 48C154.106 48 154.066 47.952 154.066 47.856C154.066 47.76 154.106 47.712 154.186 47.712C154.634 47.712 155.01 47.624 155.314 47.448C155.618 47.272 155.914 46.96 156.202 46.512C156.49 46.048 156.834 45.368 157.234 44.472L162.394 32.856C162.426 32.808 162.498 32.784 162.61 32.784C162.722 32.784 162.786 32.808 162.802 32.856L168.682 44.712C169.242 45.864 169.706 46.656 170.074 47.088C170.458 47.504 170.866 47.712 171.298 47.712ZM159.25 41.52H164.506L161.746 35.928L159.25 41.52ZM188.505 33C188.537 33 188.553 33.048 188.553 33.144C188.553 33.24 188.537 33.288 188.505 33.288C187.865 33.288 187.369 33.52 187.017 33.984C186.665 34.432 186.489 35.08 186.489 35.928V48.336C186.489 48.384 186.449 48.416 186.369 48.432C186.289 48.448 186.233 48.44 186.201 48.408L174.945 35.328V45.096C174.945 45.944 175.113 46.592 175.449 47.04C175.785 47.488 176.273 47.712 176.913 47.712C176.945 47.712 176.961 47.76 176.961 47.856C176.961 47.952 176.945 48 176.913 48C176.481 48 176.153 47.992 175.929 47.976L174.657 47.952L173.241 47.976C172.985 47.992 172.617 48 172.137 48C172.089 48 172.065 47.952 172.065 47.856C172.065 47.76 172.089 47.712 172.137 47.712C172.825 47.712 173.353 47.488 173.721 47.04C174.105 46.592 174.297 45.944 174.297 45.096V34.584C173.849 34.104 173.441 33.768 173.073 33.576C172.721 33.384 172.353 33.288 171.969 33.288C171.937 33.288 171.921 33.24 171.921 33.144C171.921 33.048 171.937 33 171.969 33L172.929 33.024C173.137 33.04 173.433 33.048 173.817 33.048L175.353 33.024C175.545 33.008 175.777 33 176.049 33C176.177 33 176.273 33.032 176.337 33.096C176.401 33.16 176.497 33.288 176.625 33.48L177.201 34.248L185.841 44.424V35.928C185.841 35.08 185.673 34.432 185.337 33.984C185.001 33.52 184.521 33.288 183.897 33.288C183.865 33.288 183.849 33.24 183.849 33.144C183.849 33.048 183.865 33 183.897 33L184.881 33.024C185.393 33.056 185.817 33.072 186.153 33.072C186.473 33.072 186.905 33.056 187.449 33.024L188.505 33ZM205.939 47.712C206.019 47.712 206.059 47.76 206.059 47.856C206.059 47.952 206.019 48 205.939 48C205.635 48 205.147 47.984 204.475 47.952C203.803 47.92 203.315 47.904 203.011 47.904C202.611 47.904 202.139 47.92 201.595 47.952C201.051 47.984 200.627 48 200.323 48C200.259 48 200.227 47.952 200.227 47.856C200.227 47.76 200.259 47.712 200.323 47.712C200.787 47.712 201.123 47.664 201.331 47.568C201.555 47.456 201.667 47.28 201.667 47.04C201.667 46.8 201.531 46.392 201.259 45.816L199.435 42.12H193.627L192.475 44.712C192.267 45.192 192.163 45.624 192.163 46.008C192.163 46.568 192.363 46.992 192.763 47.28C193.163 47.568 193.723 47.712 194.443 47.712C194.523 47.712 194.563 47.76 194.563 47.856C194.563 47.952 194.523 48 194.443 48C194.155 48 193.739 47.984 193.195 47.952C192.587 47.92 192.059 47.904 191.611 47.904C191.179 47.904 190.675 47.92 190.099 47.952C189.587 47.984 189.163 48 188.827 48C188.747 48 188.707 47.952 188.707 47.856C188.707 47.76 188.747 47.712 188.827 47.712C189.275 47.712 189.651 47.624 189.955 47.448C190.259 47.272 190.555 46.96 190.843 46.512C191.131 46.048 191.475 45.368 191.875 44.472L197.035 32.856C197.067 32.808 197.139 32.784 197.251 32.784C197.363 32.784 197.427 32.808 197.443 32.856L203.323 44.712C203.883 45.864 204.347 46.656 204.715 47.088C205.099 47.504 205.507 47.712 205.939 47.712ZM193.891 41.52H199.147L196.387 35.928L193.891 41.52ZM127.984 53C128.032 53 128.056 53.048 128.056 53.144C128.056 53.24 128.032 53.288 127.984 53.288C127.408 53.288 126.88 53.504 126.4 53.936C125.92 54.368 125.528 54.992 125.224 55.808L120.568 67.976C120.552 68.04 120.464 68.072 120.304 68.072C120.144 68.072 120.056 68.04 120.04 67.976L113.968 54.992C113.68 54.4 113.392 53.968 113.104 53.696C112.816 53.424 112.472 53.288 112.072 53.288C112.024 53.288 112 53.24 112 53.144C112 53.048 112.024 53 112.072 53L112.696 53.024C113.048 53.056 113.448 53.072 113.896 53.072C115.016 53.072 116.024 53.056 116.92 53.024C117.176 53.008 117.504 53 117.904 53C117.952 53 117.976 53.048 117.976 53.144C117.976 53.24 117.952 53.288 117.904 53.288C116.896 53.288 116.392 53.64 116.392 54.344C116.392 54.616 116.472 54.92 116.632 55.256L121.096 64.808L124.6 55.712C124.744 55.328 124.816 54.984 124.816 54.68C124.816 54.232 124.664 53.888 124.36 53.648C124.072 53.408 123.632 53.288 123.04 53.288C122.992 53.288 122.968 53.24 122.968 53.144C122.968 53.048 122.992 53 123.04 53L124.192 53.024C124.8 53.056 125.36 53.072 125.872 53.072C126.176 53.072 126.552 53.056 127 53.024L127.984 53ZM142.681 67.712C142.761 67.712 142.801 67.76 142.801 67.856C142.801 67.952 142.761 68 142.681 68C142.377 68 141.889 67.984 141.217 67.952C140.545 67.92 140.057 67.904 139.753 67.904C139.353 67.904 138.881 67.92 138.337 67.952C137.793 67.984 137.369 68 137.065 68C137.001 68 136.969 67.952 136.969 67.856C136.969 67.76 137.001 67.712 137.065 67.712C137.529 67.712 137.865 67.664 138.073 67.568C138.297 67.456 138.409 67.28 138.409 67.04C138.409 66.8 138.273 66.392 138.001 65.816L136.177 62.12H130.369L129.217 64.712C129.009 65.192 128.905 65.624 128.905 66.008C128.905 66.568 129.105 66.992 129.505 67.28C129.905 67.568 130.465 67.712 131.185 67.712C131.265 67.712 131.305 67.76 131.305 67.856C131.305 67.952 131.265 68 131.185 68C130.897 68 130.481 67.984 129.937 67.952C129.329 67.92 128.801 67.904 128.353 67.904C127.921 67.904 127.417 67.92 126.841 67.952C126.329 67.984 125.905 68 125.569 68C125.489 68 125.449 67.952 125.449 67.856C125.449 67.76 125.489 67.712 125.569 67.712C126.017 67.712 126.393 67.624 126.697 67.448C127.001 67.272 127.297 66.96 127.585 66.512C127.873 66.048 128.217 65.368 128.617 64.472L133.777 52.856C133.809 52.808 133.881 52.784 133.993 52.784C134.105 52.784 134.169 52.808 134.185 52.856L140.065 64.712C140.625 65.864 141.089 66.656 141.457 67.088C141.841 67.504 142.249 67.712 142.681 67.712ZM130.633 61.52H135.889L133.129 55.928L130.633 61.52ZM152.526 52.736C154.302 52.736 155.734 52.984 156.822 53.48C156.95 53.544 157.03 53.608 157.062 53.672C157.094 53.72 157.126 53.84 157.158 54.032L157.446 57.2C157.446 57.248 157.406 57.28 157.326 57.296C157.246 57.312 157.19 57.288 157.158 57.224C156.742 55.912 156.118 54.912 155.286 54.224C154.47 53.536 153.454 53.192 152.238 53.192C151.07 53.192 150.022 53.488 149.094 54.08C148.182 54.656 147.47 55.496 146.958 56.6C146.446 57.688 146.19 58.96 146.19 60.416C146.19 61.856 146.462 63.144 147.006 64.28C147.55 65.4 148.294 66.272 149.238 66.896C150.182 67.52 151.246 67.832 152.43 67.832C153.598 67.832 154.566 67.528 155.334 66.92C156.118 66.296 156.806 65.312 157.398 63.968C157.414 63.92 157.462 63.904 157.542 63.92C157.622 63.936 157.662 63.96 157.662 63.992L157.35 66.872C157.334 67.064 157.302 67.184 157.254 67.232C157.222 67.28 157.142 67.336 157.014 67.4C155.574 67.992 154.046 68.288 152.43 68.288C150.718 68.288 149.19 67.968 147.846 67.328C146.502 66.672 145.454 65.76 144.702 64.592C143.95 63.408 143.574 62.056 143.574 60.536C143.574 59.032 143.966 57.688 144.75 56.504C145.534 55.32 146.606 54.4 147.966 53.744C149.326 53.072 150.846 52.736 152.526 52.736ZM175.845 67.712C175.925 67.712 175.965 67.76 175.965 67.856C175.965 67.952 175.925 68 175.845 68C175.541 68 175.053 67.984 174.381 67.952C173.709 67.92 173.221 67.904 172.917 67.904C172.517 67.904 172.045 67.92 171.501 67.952C170.957 67.984 170.533 68 170.229 68C170.165 68 170.133 67.952 170.133 67.856C170.133 67.76 170.165 67.712 170.229 67.712C170.693 67.712 171.029 67.664 171.237 67.568C171.461 67.456 171.573 67.28 171.573 67.04C171.573 66.8 171.437 66.392 171.165 65.816L169.341 62.12H163.533L162.381 64.712C162.173 65.192 162.069 65.624 162.069 66.008C162.069 66.568 162.269 66.992 162.669 67.28C163.069 67.568 163.629 67.712 164.349 67.712C164.429 67.712 164.469 67.76 164.469 67.856C164.469 67.952 164.429 68 164.349 68C164.061 68 163.645 67.984 163.101 67.952C162.493 67.92 161.965 67.904 161.517 67.904C161.085 67.904 160.581 67.92 160.005 67.952C159.493 67.984 159.069 68 158.733 68C158.653 68 158.613 67.952 158.613 67.856C158.613 67.76 158.653 67.712 158.733 67.712C159.181 67.712 159.557 67.624 159.861 67.448C160.165 67.272 160.461 66.96 160.749 66.512C161.037 66.048 161.381 65.368 161.781 64.472L166.941 52.856C166.973 52.808 167.045 52.784 167.157 52.784C167.269 52.784 167.333 52.808 167.349 52.856L173.229 64.712C173.789 65.864 174.253 66.656 174.621 67.088C175.005 67.504 175.413 67.712 175.845 67.712ZM163.797 61.52H169.053L166.293 55.928L163.797 61.52ZM179.22 53.504C178.244 53.504 177.436 53.808 176.796 54.416C176.172 55.008 175.692 55.912 175.356 57.128C175.356 57.16 175.308 57.176 175.212 57.176C175.132 57.176 175.092 57.152 175.092 57.104C175.156 56.48 175.228 55.68 175.308 54.704C175.388 53.712 175.428 52.968 175.428 52.472C175.428 52.392 175.468 52.352 175.548 52.352C175.644 52.352 175.692 52.392 175.692 52.472C175.692 52.824 176.14 53 177.036 53C178.412 53.048 180.02 53.072 181.86 53.072C182.804 53.072 183.804 53.056 184.86 53.024L186.492 53C187.1 53 187.54 52.96 187.812 52.88C188.1 52.8 188.284 52.64 188.364 52.4C188.38 52.336 188.428 52.304 188.508 52.304C188.588 52.304 188.628 52.336 188.628 52.4C188.58 52.896 188.532 53.648 188.484 54.656C188.436 55.664 188.412 56.48 188.412 57.104C188.412 57.152 188.364 57.176 188.268 57.176C188.188 57.176 188.14 57.152 188.124 57.104C187.964 55.872 187.588 54.968 186.996 54.392C186.404 53.8 185.604 53.504 184.596 53.504C184.148 53.504 183.812 53.544 183.588 53.624C183.38 53.704 183.236 53.848 183.156 54.056C183.092 54.248 183.06 54.56 183.06 54.992V66.056C183.06 66.552 183.108 66.912 183.204 67.136C183.3 67.36 183.492 67.512 183.78 67.592C184.068 67.672 184.524 67.712 185.148 67.712C185.196 67.712 185.22 67.76 185.22 67.856C185.22 67.952 185.196 68 185.148 68C184.588 68 184.148 67.992 183.828 67.976L181.86 67.952L179.988 67.976C179.652 67.992 179.188 68 178.596 68C178.564 68 178.548 67.952 178.548 67.856C178.548 67.76 178.564 67.712 178.596 67.712C179.22 67.712 179.676 67.672 179.964 67.592C180.268 67.512 180.468 67.36 180.564 67.136C180.676 66.896 180.732 66.536 180.732 66.056V54.944C180.732 54.528 180.692 54.224 180.612 54.032C180.532 53.84 180.388 53.704 180.18 53.624C179.972 53.544 179.652 53.504 179.22 53.504ZM201.244 64.256C201.244 64.224 201.276 64.208 201.34 64.208C201.388 64.208 201.428 64.224 201.46 64.256C201.508 64.272 201.532 64.288 201.532 64.304C201.372 65.52 201.292 66.632 201.292 67.64C201.292 67.768 201.268 67.864 201.22 67.928C201.172 67.976 201.076 68 200.932 68H190.516C190.468 68 190.444 67.952 190.444 67.856C190.444 67.76 190.468 67.712 190.516 67.712C191.06 67.712 191.452 67.672 191.692 67.592C191.948 67.512 192.116 67.36 192.196 67.136C192.292 66.896 192.34 66.536 192.34 66.056V54.944C192.34 54.464 192.292 54.112 192.196 53.888C192.116 53.664 191.948 53.512 191.692 53.432C191.436 53.336 191.044 53.288 190.516 53.288C190.468 53.288 190.444 53.24 190.444 53.144C190.444 53.048 190.468 53 190.516 53H200.5C200.66 53 200.74 53.072 200.74 53.216L200.788 56.336C200.788 56.368 200.74 56.392 200.644 56.408C200.564 56.424 200.516 56.408 200.5 56.36C200.116 54.536 199.004 53.624 197.164 53.624H196.204C195.628 53.624 195.22 53.728 194.98 53.936C194.74 54.144 194.62 54.496 194.62 54.992V59.888H196.924C198.684 59.888 199.564 59.296 199.564 58.112C199.564 58.064 199.604 58.04 199.684 58.04C199.78 58.04 199.828 58.064 199.828 58.112L199.804 60.2L199.828 61.328C199.86 61.84 199.876 62.256 199.876 62.576C199.876 62.608 199.828 62.624 199.732 62.624C199.636 62.624 199.588 62.608 199.588 62.576C199.588 61.2 198.692 60.512 196.9 60.512H194.62V65.96C194.62 66.488 194.716 66.856 194.908 67.064C195.116 67.272 195.476 67.376 195.988 67.376H197.164C199.308 67.376 200.668 66.336 201.244 64.256ZM207.529 65.96C207.529 66.392 207.561 66.704 207.625 66.896C207.705 67.088 207.849 67.216 208.057 67.28C208.265 67.344 208.601 67.376 209.065 67.376H210.505C211.641 67.376 212.601 67.064 213.385 66.44C214.169 65.8 214.689 64.944 214.945 63.872C214.961 63.824 215.009 63.808 215.089 63.824C215.169 63.824 215.209 63.848 215.209 63.896C215.065 65.4 214.993 66.648 214.993 67.64C214.993 67.768 214.969 67.864 214.921 67.928C214.873 67.976 214.777 68 214.633 68H203.401C203.369 68 203.353 67.952 203.353 67.856C203.353 67.76 203.369 67.712 203.401 67.712C203.945 67.712 204.337 67.672 204.577 67.592C204.833 67.512 205.001 67.36 205.081 67.136C205.177 66.896 205.225 66.536 205.225 66.056V54.944C205.225 54.464 205.177 54.112 205.081 53.888C205.001 53.664 204.833 53.512 204.577 53.432C204.321 53.336 203.929 53.288 203.401 53.288C203.369 53.288 203.353 53.24 203.353 53.144C203.353 53.048 203.369 53 203.401 53L204.625 53.024C205.329 53.056 205.905 53.072 206.353 53.072C206.833 53.072 207.425 53.056 208.129 53.024L209.329 53C209.377 53 209.401 53.048 209.401 53.144C209.401 53.24 209.377 53.288 209.329 53.288C208.801 53.288 208.409 53.336 208.153 53.432C207.913 53.512 207.745 53.672 207.649 53.912C207.569 54.136 207.529 54.488 207.529 54.968V65.96ZM220.513 65.96C220.513 66.392 220.545 66.704 220.609 66.896C220.689 67.088 220.833 67.216 221.041 67.28C221.249 67.344 221.585 67.376 222.049 67.376H223.489C224.625 67.376 225.585 67.064 226.369 66.44C227.153 65.8 227.673 64.944 227.929 63.872C227.945 63.824 227.993 63.808 228.073 63.824C228.153 63.824 228.193 63.848 228.193 63.896C228.049 65.4 227.977 66.648 227.977 67.64C227.977 67.768 227.953 67.864 227.905 67.928C227.857 67.976 227.761 68 227.617 68H216.385C216.353 68 216.337 67.952 216.337 67.856C216.337 67.76 216.353 67.712 216.385 67.712C216.929 67.712 217.321 67.672 217.561 67.592C217.817 67.512 217.985 67.36 218.065 67.136C218.161 66.896 218.209 66.536 218.209 66.056V54.944C218.209 54.464 218.161 54.112 218.065 53.888C217.985 53.664 217.817 53.512 217.561 53.432C217.305 53.336 216.913 53.288 216.385 53.288C216.353 53.288 216.337 53.24 216.337 53.144C216.337 53.048 216.353 53 216.385 53L217.609 53.024C218.313 53.056 218.889 53.072 219.337 53.072C219.817 53.072 220.409 53.056 221.113 53.024L222.313 53C222.361 53 222.385 53.048 222.385 53.144C222.385 53.24 222.361 53.288 222.313 53.288C221.785 53.288 221.393 53.336 221.137 53.432C220.897 53.512 220.729 53.672 220.633 53.912C220.553 54.136 220.513 54.488 220.513 54.968V65.96ZM237.386 68.288C235.898 68.288 234.57 67.944 233.402 67.256C232.25 66.552 231.354 65.608 230.714 64.424C230.09 63.224 229.778 61.92 229.778 60.512C229.778 58.864 230.194 57.456 231.026 56.288C231.858 55.104 232.922 54.216 234.218 53.624C235.53 53.032 236.866 52.736 238.226 52.736C239.746 52.736 241.082 53.096 242.234 53.816C243.386 54.52 244.266 55.456 244.874 56.624C245.498 57.792 245.81 59.032 245.81 60.344C245.81 61.8 245.426 63.136 244.658 64.352C243.89 65.568 242.858 66.528 241.562 67.232C240.282 67.936 238.89 68.288 237.386 68.288ZM238.202 67.712C239.162 67.712 240.018 67.456 240.77 66.944C241.538 66.416 242.138 65.648 242.57 64.64C243.018 63.632 243.242 62.432 243.242 61.04C243.242 59.568 242.994 58.248 242.498 57.08C242.018 55.912 241.322 55 240.41 54.344C239.514 53.688 238.458 53.36 237.242 53.36C235.69 53.36 234.482 53.92 233.618 55.04C232.77 56.144 232.346 57.68 232.346 59.648C232.346 61.168 232.594 62.544 233.09 63.776C233.602 65.008 234.298 65.976 235.178 66.68C236.074 67.368 237.082 67.712 238.202 67.712Z" fill="#68754A"/>
</svg>